# xmcd CD database file
#
# Track frame offsets:
#	150
#	17375
#	38405
#	54973
#	79818
#	97938
#	127640
#	153718
#	179638
#
# Disc length: 2675 seconds
#
# Revision: 0
# Processed by: cddbd v1.4PL0 Copyright (c) Steve Scherf et al.
# Submitted via: CDex 1.50beta10
#
DISCID=5b0a7109
DTITLE=Great Jazz Trio - Hanky panky
DYEAR=1975
DGENRE=Jazz
TTITLE0=Nothin' beats an evil woman
TTITLE1=Warm blue stream
TTITLE2=Confidence
TTITLE3=Wind flower
TTITLE4=Minor contention
TTITLE5=Favors
TTITLE6=As long as I live
TTITLE7=Oh, what a beautiful morning
TTITLE8=Hanky panky
EXTD=YEAR: 1975
EXTT0=
EXTT1=
EXTT2=
EXTT3=
EXTT4=
EXTT5=
EXTT6=
EXTT7=
EXTT8=
PLAYORDER=
